<svg xmlns="http://www.w3.org/2000/svg" version="1.1" xmlns:xlink="http://www.w3.org/1999/xlink" xmlns:svgjs="http://svgjs.dev/svgjs" width="2000" height="621" viewBox="0 0 2000 621"><g transform="matrix(1,0,0,1,-1.2121212121212466,-0.9882015349157314)"><svg viewBox="0 0 396 123" data-background-color="#111111" preserveAspectRatio="xMidYMid meet" height="621" width="2000" xmlns="http://www.w3.org/2000/svg" xmlns:xlink="http://www.w3.org/1999/xlink"><g id="tight-bounds" transform="matrix(1,0,0,1,0.2400000000000091,0.1957307387997389)"><svg viewBox="0 0 395.52 122.60853852240052" height="122.60853852240052" width="395.52"><g><svg viewBox="0 0 620.8588031192793 192.4620511711712" height="122.60853852240052" width="395.52"><g transform="matrix(1,0,0,1,225.3388031192793,26.599313873873882)"><svg viewBox="0 0 395.52 139.26342342342343" height="139.26342342342343" width="395.52"><g id="textblocktransform"><svg viewBox="0 0 395.52 139.26342342342343" height="139.26342342342343" width="395.52" id="textblock"><g><svg viewBox="0 0 395.52 139.26342342342343" height="139.26342342342343" width="395.52"><g transform="matrix(1,0,0,1,0,0)"><svg width="395.52" viewBox="2.4 -36.15 133.19 46.9" height="139.26342342342343" data-palette-color="#ffffff"><path d="M2.4-2.2L2.4-2.2Q2.45-2.85 2.45-3.78 2.45-4.7 2.53-5.53 2.6-6.35 2.88-6.93 3.15-7.5 3.75-7.5L3.75-7.5Q4.05-7.5 4.28-7.13 4.5-6.75 4.7-6.23 4.9-5.7 5.08-5.2 5.25-4.7 5.4-4.4L5.4-4.4Q5.95-3.4 7.55-2.53 9.15-1.65 11.2-1.65L11.2-1.65Q12.5-1.65 13.63-2.45 14.75-3.25 14.75-4.7L14.75-4.7Q14.75-6.1 13.85-7 12.95-7.9 11.63-8.6 10.3-9.3 8.75-9.93 7.2-10.55 5.88-11.4 4.55-12.25 3.65-13.48 2.75-14.7 2.75-16.6L2.75-16.6Q2.75-18.3 3.55-19.65 4.35-21 5.63-21.93 6.9-22.85 8.5-23.35 10.1-23.85 11.65-23.85L11.65-23.85Q14.65-23.85 16.05-22.88 17.45-21.9 17.45-20.9L17.45-20.9Q17.45-20.4 17.45-19.63 17.45-18.85 17.35-18.13 17.25-17.4 17-16.9 16.75-16.4 16.25-16.4L16.25-16.4Q15.95-16.4 15.68-16.8 15.4-17.2 15.2-17.65L15.2-17.65Q14.95-18.2 14.75-18.9L14.75-18.9Q14.3-20.05 13.23-20.58 12.15-21.1 9.35-21.1L9.35-21.1Q8.25-21.1 7.38-20.48 6.5-19.85 6.5-18.3L6.5-18.3Q6.5-17 7.4-16.13 8.3-15.25 9.68-14.55 11.05-13.85 12.65-13.18 14.25-12.5 15.63-11.58 17-10.65 17.9-9.38 18.8-8.1 18.8-6.15L18.8-6.15Q18.8-4.45 17.98-3.15 17.15-1.85 15.83-0.98 14.5-0.1 12.83 0.35 11.15 0.8 9.5 0.8L9.5 0.8Q8.55 0.8 7.5 0.58 6.45 0.35 5.45-0.03 4.45-0.4 3.65-0.98 2.85-1.55 2.4-2.2ZM21.45-1L21.45-1Q21.45-1.25 21.77-1.48 22.1-1.7 22.55-1.9 23-2.1 23.45-2.27 23.9-2.45 24.1-2.55L24.1-2.55 24.1-32.95Q23-33.1 22.3-33.4 21.6-33.7 21.6-34L21.6-34Q21.6-34.7 22.17-35.1 22.75-35.5 23.62-35.75 24.5-36 25.47-36.08 26.45-36.15 27.2-36.15L27.2-36.15Q27.6-36.15 27.92-36.1 28.25-36.05 28.35-35.7L28.35-35.7 28.35-11.1 36.8-20.6Q36.35-20.7 35.8-20.78 35.25-20.85 34.8-21 34.35-21.15 34.02-21.35 33.7-21.55 33.7-21.8L33.7-21.8Q33.7-22.1 33.97-22.5 34.25-22.9 34.8-22.9L34.8-22.9 42.35-22.9Q43.2-22.9 43.55-22.73 43.9-22.55 43.9-22.3L43.9-22.3Q43.9-21.45 43.1-21.08 42.3-20.7 41.35-20.6L41.35-20.6 35-14.4 42.5-3.15Q42.8-2.8 43.47-2.6 44.15-2.4 44.82-2.23 45.5-2.05 46.02-1.83 46.55-1.6 46.55-1.1L46.55-1.1Q46.55-0.85 46.15-0.43 45.75 0 44.85 0L44.85 0 36.75 0Q36.15 0 35.97-0.35 35.8-0.7 35.8-1L35.8-1Q35.8-1.45 36.4-1.65L36.4-1.65 37.9-2.3 32.1-11.6 28.35-7.85 28.35-3.7Q28.35-2.95 28.87-2.68 29.4-2.4 30.05-2.25 30.7-2.1 31.22-1.9 31.75-1.7 31.75-1.1L31.75-1.1Q31.75 0 30.05 0L30.05 0 22.4 0Q21.8 0 21.62-0.35 21.45-0.7 21.45-1ZM49.35 3.95L49.35 3.95Q50.05 3.95 50.25 4.42 50.45 4.9 50.62 5.5 50.8 6.1 51.2 6.58 51.6 7.05 52.7 7.05L52.7 7.05Q53.9 7.05 54.87 5.58 55.85 4.1 56.55 2.05L56.55 2.05 47.25-19.75 46.05-20.6Q45.15-20.7 44.95-21.05 44.75-21.4 44.75-22.3L44.75-22.3Q44.75-22.5 44.85-22.7 44.95-22.9 45.65-22.9L45.65-22.9 53.25-22.9Q53.8-22.9 54.05-22.5 54.3-22.1 54.3-21.75L54.3-21.75Q54.3-21.2 53.47-20.98 52.65-20.75 51.6-20.6L51.6-20.6 56.05-9.05 58.2-2.4 59.8-9.05 63.7-20.6Q63.2-20.7 62.6-20.78 62-20.85 61.47-20.98 60.95-21.1 60.62-21.3 60.3-21.5 60.3-21.75L60.3-21.75Q60.3-22.1 60.57-22.5 60.85-22.9 61.4-22.9L61.4-22.9 68.7-22.9Q69.45-22.9 69.77-22.7 70.09-22.5 70.09-22.3L70.09-22.3Q70.09-21.4 69.2-21.03 68.3-20.65 67.25-20.55L67.25-20.55 59.15 2.1Q58.2 4.55 57.2 6.2 56.2 7.85 55.15 8.88 54.1 9.9 53 10.33 51.9 10.75 50.75 10.75L50.75 10.75Q50.1 10.75 49.4 10.45 48.7 10.15 48.12 9.6 47.55 9.05 47.17 8.33 46.8 7.6 46.8 6.7L46.8 6.7Q46.8 5.75 47.32 4.85 47.85 3.95 49.35 3.95ZM71.09-1L71.09-1Q71.09-1.25 71.42-1.48 71.74-1.7 72.19-1.9 72.64-2.1 73.09-2.27 73.54-2.45 73.74-2.55L73.74-2.55 73.74-19Q72.74-19.2 71.69-19.65 70.64-20.1 70.64-20.45L70.64-20.45Q70.64-20.95 71.24-21.48 71.84-22 72.72-22.4 73.59-22.8 74.59-23.08 75.59-23.35 76.34-23.35L76.34-23.35Q77.44-23.35 77.54-22.85L77.54-22.85 77.54-20.3Q79.29-21.85 81.32-22.85 83.34-23.85 85.89-23.85L85.89-23.85Q87.64-23.85 88.97-23.38 90.29-22.9 91.29-21.6L91.29-21.6Q92.29-20.3 92.57-19.03 92.84-17.75 92.84-16.45L92.84-16.45 92.84-3.4Q92.84-2.8 93.32-2.58 93.79-2.35 94.34-2.2 94.89-2.05 95.34-1.85 95.79-1.65 95.79-1.1L95.79-1.1Q95.79-0.85 95.39-0.43 94.99 0 94.09 0L94.09 0 86.84 0Q86.24 0 86.07-0.35 85.89-0.7 85.89-1L85.89-1Q85.89-1.25 86.22-1.48 86.54-1.7 86.97-1.9 87.39-2.1 87.82-2.27 88.24-2.45 88.44-2.55L88.44-2.55 88.44-14.55Q88.44-18.05 87.17-19.5 85.89-20.95 83.94-20.95L83.94-20.95Q82.44-20.95 80.82-20.38 79.19-19.8 78.04-18.75L78.04-18.75 78.04-3.7Q78.04-2.95 78.57-2.68 79.09-2.4 79.74-2.25 80.39-2.1 80.92-1.9 81.44-1.7 81.44-1.1L81.44-1.1Q81.44 0 79.74 0L79.74 0 72.04 0Q71.44 0 71.27-0.35 71.09-0.7 71.09-1ZM98.49-10.1L98.49-10.1Q98.49-13 99.29-15.5 100.09-18 101.57-19.85 103.04-21.7 105.17-22.78 107.29-23.85 109.89-23.85L109.89-23.85Q112.74-23.85 114.44-22.73 116.14-21.6 117.07-19.85 117.99-18.1 118.29-16.03 118.59-13.95 118.64-12L118.64-12Q118.64-11.25 117.99-11.15 117.34-11.05 116.64-11.05L116.64-11.05 103.09-11.05Q103.19-9.35 103.62-7.75 104.04-6.15 104.87-4.9 105.69-3.65 106.97-2.88 108.24-2.1 109.94-2.1L109.94-2.1Q111.79-2.1 112.94-2.38 114.09-2.65 114.84-2.98 115.59-3.3 116.12-3.58 116.64-3.85 117.24-3.85L117.24-3.85Q117.94-3.85 117.94-3.3L117.94-3.3Q117.94-2.65 117.19-1.93 116.44-1.2 115.17-0.58 113.89 0.05 112.22 0.43 110.54 0.8 108.69 0.8L108.69 0.8Q106.04 0.8 104.12-0.1 102.19-1 100.94-2.5 99.69-4 99.09-5.98 98.49-7.95 98.49-10.1ZM103.09-13.3L113.69-13.65Q113.64-15.2 113.44-16.57 113.24-17.95 112.69-18.95 112.14-19.95 111.09-20.55 110.04-21.15 108.34-21.15L108.34-21.15Q105.84-21.15 104.57-18.93 103.29-16.7 103.09-13.3L103.09-13.3ZM124.79-2.85L124.79-20.1 122.69-20.1Q122.44-20.2 122.36-20.45 122.29-20.7 122.29-20.9L122.29-20.9Q122.29-21.4 122.54-21.58 122.79-21.75 123.19-21.98 123.59-22.2 124.11-22.6 124.64-23 125.19-23.9L125.19-23.9Q125.54-24.55 125.74-25.48 125.94-26.4 126.16-27.25 126.39-28.1 126.71-28.7 127.04-29.3 127.59-29.3L127.59-29.3Q127.99-29.3 128.46-29.25 128.94-29.2 129.14-29.1L129.14-29.1 129.14-22.9 133.89-22.9Q134.54-22.9 134.71-22.65 134.89-22.4 134.89-22L134.89-22Q134.89-21.4 134.46-20.78 134.04-20.15 133.34-20.1L133.34-20.1 129.14-20.1 129.14-7.35Q129.14-5.55 129.19-4.55 129.24-3.55 129.46-3.05 129.69-2.55 130.16-2.43 130.64-2.3 131.54-2.3L131.54-2.3Q132.24-2.3 133.01-2.58 133.79-2.85 134.64-2.85L134.64-2.85Q135.39-2.85 135.49-2.48 135.59-2.1 135.59-2L135.59-2Q135.59-1.4 134.84-0.9 134.09-0.4 132.96-0.05 131.84 0.3 130.49 0.48 129.14 0.65 127.99 0.65L127.99 0.65Q126.74 0.65 125.76-0.25 124.79-1.15 124.79-2.85L124.79-2.85Z" opacity="1" transform="matrix(1,0,0,1,0,0)" fill="#ffffff" class="wordmark-text-0" data-fill-palette-color="primary" id="text-0"></path></svg></g></svg></g></svg></g></svg></g><g><svg viewBox="0 0 192.4620511711712 192.4620511711712" height="192.4620511711712" width="192.4620511711712"><g><svg></svg></g><g id="icon-0"><svg viewBox="0 0 192.4620511711712 192.4620511711712" height="192.4620511711712" width="192.4620511711712"><g><path transform="scale(1.92462,1.92462)" d="M30 100c-16.569 0-30-13.431-30-30v-40c0-16.569 13.431-30 30-30h40c16.569 0 30 13.431 30 30v40c0 16.569-13.431 30-30 30z" fill="#2f45b8" fill-rule="nonzero" stroke="none" stroke-width="1" stroke-linecap="butt" stroke-linejoin="miter" stroke-miterlimit="10" stroke-dasharray="" stroke-dashoffset="0" font-family="none" font-weight="none" font-size="none" text-anchor="none" style="mix-blend-mode: normal" data-fill-palette-color="accent"></path></g><g transform="matrix(1,0,0,1,38.49243988620512,38.492410234234235)"><svg viewBox="0 0 115.47717139876096 115.47723070270273" height="115.47723070270273" width="115.47717139876096"><g><svg xmlns="http://www.w3.org/2000/svg" xmlns:xlink="http://www.w3.org/1999/xlink" version="1.1" x="0" y="0" viewBox="4.999802624769675 4.9994999999999985 90.00069737523032 90.00074359558756" enable-background="new 0 0 100 100" xml:space="preserve" height="115.47723070270273" width="115.47717139876096" class="icon-cg-0" data-fill-palette-color="quaternary" id="cg-0"><g fill="#ffffff" data-fill-palette-color="quaternary"><path d="M5.316 94.538l3.806-25.693C1.46 52.219 4.479 31.881 18.18 18.18c17.574-17.574 46.066-17.574 63.64 0s17.574 46.066 0 63.64c-13.884 13.884-34.583 16.799-51.328 8.745L5.316 94.538zM23.799 49.684c0 3.189 2.585 5.774 5.774 5.774s5.774-2.585 5.774-5.774c0-3.189-2.585-5.774-5.774-5.774S23.799 46.495 23.799 49.684zM44.361 49.684c0 3.189 2.585 5.774 5.774 5.774 3.189 0 5.774-2.585 5.774-5.774 0-3.189-2.585-5.774-5.774-5.774C46.946 43.91 44.361 46.495 44.361 49.684zM64.923 49.684c0 3.189 2.585 5.774 5.774 5.774s5.774-2.585 5.774-5.774c0-3.189-2.585-5.774-5.774-5.774S64.923 46.495 64.923 49.684z" fill="#ffffff" data-fill-palette-color="quaternary"></path></g></svg></g></svg></g></svg></g></svg></g></svg></g><defs></defs></svg><rect width="395.52" height="122.60853852240052" fill="none" stroke="none" visibility="hidden"></rect></g></svg></g></svg>